<svg xmlns="http://www.w3.org/2000/svg" width="25" height="26" fill="none" viewBox="0 0 25 26">
    <g clip-path="url(#clip0)">
        <path fill="#EBBB6E" d="M6 12c3.314 0 6-2.686 6-6S9.314 0 6 0 0 2.686 0 6s2.686 6 6 6z"/>
        <path stroke="#364487" stroke-linecap="round" stroke-linejoin="round" stroke-miterlimit="10" stroke-width="1.391" d="M10.2 22.5v-4c0-.6-.5-1-1-1h-4"/>
        <path stroke="#364487" stroke-linecap="round" stroke-linejoin="round" stroke-miterlimit="10" stroke-width="1.391" d="M7.2 4.4h10.1c1.1 0 2 .9 2 2v14.1c0 1.1-.9 2-2 2h-7.1l-5-5V6.4c0-1.1.9-2 2-2zM15.3 16.5h-1M15.3 12.4H9.2M15.3 8.4H9.2"/>
    </g>
    <defs>
        <clipPath id="clip0">
            <path fill="#fff" d="M0 0H24.3V25.5H0z"/>
        </clipPath>
    </defs>
</svg>
