<svg xmlns="http://www.w3.org/2000/svg" width="25" height="26" fill="none" viewBox="0 0 25 26">
    <g clip-path="url(#clip0)">
        <path fill="#EBBB6E" d="M6 12c3.314 0 6-2.686 6-6S9.314 0 6 0 0 2.686 0 6s2.686 6 6 6z"/>
        <path stroke="#364487" stroke-linecap="round" stroke-miterlimit="10" stroke-width="1.391" d="M10.2 18.5c3.921 0 7.1-3.179 7.1-7.1s-3.179-7.1-7.1-7.1-7.1 3.179-7.1 7.1 3.179 7.1 7.1 7.1zM21.3 22.5l-6-6"/>
        <path fill="#364487" d="M10.2 15.2c-.4 0-.7-.3-.7-.7 0-.4.3-.7.7-.7.4 0 .7.3.7.7 0 .4-.3.7-.7.7z"/>
        <path stroke="#364487" stroke-linecap="round" stroke-miterlimit="10" stroke-width="1.391" d="M10.2 11.4c.8 0 1.5-.7 1.5-1.5s-.7-1.5-1.5-1.5c-.4 0-.9.2-1.2.5"/>
    </g>
    <defs>
        <clipPath id="clip0">
            <path fill="#fff" d="M0 0H24.3V25.5H0z"/>
        </clipPath>
    </defs>
</svg>
