<svg xmlns="http://www.w3.org/2000/svg" width="49" height="160" fill="none" viewBox="0 0 49 160">
    <path fill="#ED6B4E" d="M35.268 159H22.732C15.68 159 10 153.107 10 145.792V26.208C10 18.893 15.68 13 22.732 13h12.536C42.32 13 48 18.893 48 26.208V145.69c0 7.316-5.68 13.31-12.732 13.31z"/>
    <g clip-path="url(#clip0)">
        <path fill="#EBBB6E" d="M23.1 42.2l7 4.5c.3.1.6.1.8 0l.8-.6c.6-.3.7-1.1.3-1.5L28.5 41"/>
        <path stroke="#fff" stroke-linecap="round" stroke-linejoin="round" stroke-miterlimit="10" stroke-width="1.3" d="M37.7 37.6c.2.6-.1 1.2-.7 1.3-3.3.5-8.8 2-11.9 2.9-1.3.4-2.7-.2-3.2-1.4-.6-1.2 0-2.7 1.3-3.3 2.8-1.5 7.8-4.2 10.5-6.3.5-.4 1.2-.2 1.4.4l2.6 6.4zM32.4 31.8l3 7.2"/>
    </g>
    <defs>
        <clipPath id="clip0">
            <path fill="#fff" d="M0 0H17.4V16.8H0z" transform="translate(21 30)"/>
        </clipPath>
    </defs>
</svg>
